<mxfile host="65bd71144e">
    <diagram name="Page-1" id="Af2CoAbSZcckCuTcOnmQ">
        <mxGraphModel dx="1592" dy="1087" grid="1" gridSize="10" guides="1" tooltips="1" connect="1" arrows="1" fold="1" page="1" pageScale="1" pageWidth="827" pageHeight="1169" math="0" shadow="0">
            <root>
                <mxCell id="0"/>
                <mxCell id="1" parent="0"/>
                <mxCell id="33" value="Predefined filters" style="text;html=1;strokeColor=none;fillColor=none;align=center;verticalAlign=middle;whiteSpace=wrap;rounded=0;" vertex="1" parent="1">
                    <mxGeometry x="455" y="370" width="100" height="20" as="geometry"/>
                </mxCell>
                <mxCell id="34" value="module 2" style="text;html=1;strokeColor=none;fillColor=none;align=center;verticalAlign=middle;whiteSpace=wrap;rounded=0;" vertex="1" parent="1">
                    <mxGeometry x="745" y="370" width="100" height="20" as="geometry"/>
                </mxCell>
                <mxCell id="35" value="module 1" style="text;html=1;strokeColor=none;fillColor=none;align=center;verticalAlign=middle;whiteSpace=wrap;rounded=0;" vertex="1" parent="1">
                    <mxGeometry x="605" y="370" width="100" height="20" as="geometry"/>
                </mxCell>
                <mxCell id="36" value="module 3" style="text;html=1;strokeColor=none;fillColor=none;align=center;verticalAlign=middle;whiteSpace=wrap;rounded=0;" vertex="1" parent="1">
                    <mxGeometry x="885" y="370" width="100" height="20" as="geometry"/>
                </mxCell>
                <mxCell id="37" value="module 4" style="text;html=1;strokeColor=none;fillColor=none;align=center;verticalAlign=middle;whiteSpace=wrap;rounded=0;" vertex="1" parent="1">
                    <mxGeometry x="1025" y="370" width="100" height="20" as="geometry"/>
                </mxCell>
                <mxCell id="38" value="filter 1" style="rounded=0;whiteSpace=wrap;html=1;fillColor=#d5e8d4;strokeColor=#82b366;" vertex="1" parent="1">
                    <mxGeometry x="470" y="420" width="70" height="30" as="geometry"/>
                </mxCell>
                <mxCell id="39" value="filter 2" style="rounded=0;whiteSpace=wrap;html=1;fillColor=#dae8fc;strokeColor=#6c8ebf;" vertex="1" parent="1">
                    <mxGeometry x="470" y="470" width="70" height="30" as="geometry"/>
                </mxCell>
                <mxCell id="40" value="filter 3" style="rounded=0;whiteSpace=wrap;html=1;fillColor=#e1d5e7;strokeColor=#9673a6;" vertex="1" parent="1">
                    <mxGeometry x="470" y="520" width="70" height="30" as="geometry"/>
                </mxCell>
                <mxCell id="41" value="filter 4" style="rounded=0;whiteSpace=wrap;html=1;fillColor=#f8cecc;strokeColor=#b85450;" vertex="1" parent="1">
                    <mxGeometry x="470" y="570" width="70" height="30" as="geometry"/>
                </mxCell>
                <mxCell id="42" value="filter 5" style="rounded=0;whiteSpace=wrap;html=1;fillColor=#f5f5f5;strokeColor=#666666;fontColor=#333333;" vertex="1" parent="1">
                    <mxGeometry x="470" y="620" width="70" height="30" as="geometry"/>
                </mxCell>
                <mxCell id="43" value="filter 6" style="rounded=0;whiteSpace=wrap;html=1;fillColor=#ffe6cc;strokeColor=#d79b00;" vertex="1" parent="1">
                    <mxGeometry x="470" y="670" width="70" height="30" as="geometry"/>
                </mxCell>
                <mxCell id="45" value="" style="rounded=0;whiteSpace=wrap;html=1;" vertex="1" parent="1">
                    <mxGeometry x="590" y="400" width="130" height="310" as="geometry"/>
                </mxCell>
                <mxCell id="46" value="" style="rounded=0;whiteSpace=wrap;html=1;" vertex="1" parent="1">
                    <mxGeometry x="730" y="400" width="130" height="310" as="geometry"/>
                </mxCell>
                <mxCell id="47" value="" style="rounded=0;whiteSpace=wrap;html=1;" vertex="1" parent="1">
                    <mxGeometry x="870" y="400" width="130" height="310" as="geometry"/>
                </mxCell>
                <mxCell id="48" value="" style="rounded=0;whiteSpace=wrap;html=1;" vertex="1" parent="1">
                    <mxGeometry x="1010" y="400" width="130" height="310" as="geometry"/>
                </mxCell>
                <mxCell id="50" value="filter 1" style="rounded=0;whiteSpace=wrap;html=1;fillColor=#d5e8d4;strokeColor=#82b366;" vertex="1" parent="1">
                    <mxGeometry x="620" y="420" width="70" height="30" as="geometry"/>
                </mxCell>
                <mxCell id="51" value="filter 1" style="rounded=0;whiteSpace=wrap;html=1;fillColor=#d5e8d4;strokeColor=#82b366;" vertex="1" parent="1">
                    <mxGeometry x="760" y="420" width="70" height="30" as="geometry"/>
                </mxCell>
                <mxCell id="52" value="filter 1" style="rounded=0;whiteSpace=wrap;html=1;fillColor=#d5e8d4;strokeColor=#82b366;" vertex="1" parent="1">
                    <mxGeometry x="900" y="420" width="70" height="30" as="geometry"/>
                </mxCell>
                <mxCell id="53" value="filter 1" style="rounded=0;whiteSpace=wrap;html=1;fillColor=#d5e8d4;strokeColor=#82b366;" vertex="1" parent="1">
                    <mxGeometry x="1040" y="420" width="70" height="30" as="geometry"/>
                </mxCell>
                <mxCell id="54" value="filter 2" style="rounded=0;whiteSpace=wrap;html=1;fillColor=#dae8fc;strokeColor=#6c8ebf;" vertex="1" parent="1">
                    <mxGeometry x="900" y="470" width="70" height="30" as="geometry"/>
                </mxCell>
                <mxCell id="55" value="filter 2" style="rounded=0;whiteSpace=wrap;html=1;fillColor=#dae8fc;strokeColor=#6c8ebf;" vertex="1" parent="1">
                    <mxGeometry x="620" y="470" width="70" height="30" as="geometry"/>
                </mxCell>
                <mxCell id="56" value="filter 3" style="rounded=0;whiteSpace=wrap;html=1;fillColor=#e1d5e7;strokeColor=#9673a6;" vertex="1" parent="1">
                    <mxGeometry x="760" y="520" width="70" height="30" as="geometry"/>
                </mxCell>
                <mxCell id="57" value="filter 4" style="rounded=0;whiteSpace=wrap;html=1;fillColor=#f8cecc;strokeColor=#b85450;" vertex="1" parent="1">
                    <mxGeometry x="620" y="570" width="70" height="30" as="geometry"/>
                </mxCell>
            </root>
        </mxGraphModel>
    </diagram>
</mxfile>